# xmcd
#
# Track frame offsets:
#	150
#	23169
#	46573
#	67559
#
# Disc length: 1135 seconds
#
# Revision: 1
# Processed by: cddbd v1.5.2PL0 Copyright (c) Steve Scherf et al.
# Submitted via: audiograbber 1.83.01
#
DISCID=1e046d04
DTITLE=Tantrum - Headcase
DYEAR=2008
DGENRE=Blues
TTITLE0=Point Of No Return
TTITLE1=Older Than My Time
TTITLE2=Burning Out
TTITLE3=Taking Back
EXTD=
EXTT0=
EXTT1=
EXTT2=
EXTT3=
PLAYORDER=
